<?xml version="1.0" encoding="UTF-8"?>
<svg id="Camada_1" xmlns="http://www.w3.org/2000/svg" version="1.1" viewBox="0 0 30 30">
  <!-- Generator: Adobe Illustrator 30.2.1, SVG Export Plug-In . SVG Version: 2.1.1 Build 1)  -->
  <path d="M15,.37C6.71.37,0,7.08,0,15.37,0,22.01,4.29,27.61,10.26,29.6c.75.13,1.03-.32,1.03-.71,0-.36-.02-1.54-.02-2.79-3.77.69-4.74-.92-5.04-1.76-.17-.43-.9-1.76-1.54-2.12-.52-.28-1.27-.97-.02-.99,1.18-.02,2.02,1.09,2.31,1.54,1.35,2.27,3.51,1.63,4.37,1.24.13-.97.52-1.63.96-2.01-3.34-.37-6.82-1.67-6.82-7.41,0-1.63.58-2.98,1.54-4.03-.15-.37-.67-1.91.15-3.97,0,0,1.26-.39,4.12,1.54,1.2-.34,2.47-.51,3.75-.51s2.55.17,3.75.51c2.87-1.95,4.12-1.54,4.12-1.54.82,2.06.3,3.6.15,3.97.96,1.05,1.54,2.38,1.54,4.03,0,5.76-3.51,7.03-6.84,7.41.54.47,1.01,1.37,1.01,2.77,0,2.01-.02,3.62-.02,4.12,0,.39.28.86,1.03.71,6.11-2.06,10.22-7.79,10.22-14.23C30,7.08,23.29.37,15,.37"/>
</svg>