<?xml version="1.0" encoding="UTF-8"?>
<svg id="Camada_1" xmlns="http://www.w3.org/2000/svg" version="1.1" viewBox="0 0 250 250">
  <!-- Generator: Adobe Illustrator 29.8.2, SVG Export Plug-In . SVG Version: 2.1.1 Build 3)  -->
  <defs>
    <style>
      .st0 {
        fill: #93278f;
      }
    </style>
  </defs>
  <path class="st0" d="M60,117.01V51.94l-.6-.44h-.05l-13.65-10.1c-8.35-6.2-20.25-5.9-27.65,1.4-4.95,4.9-8.05,11.7-8.05,19.25v18.01l50,36.96ZM190,116.95v.07l50-36.95v-18.01c0-7.45-3-14.25-7.9-19.15-7.3-7.28-18.82-8.14-27.12-2.01l-14.38,10.62-.6.44v65ZM70,124.34l52.03,38.46c1.77,1.31,4.18,1.31,5.94,0l52.03-38.46V59.33l-55,40.67-55-40.67v65.01ZM190,129.44v75.56c0,2.76,2.24,5,5,5h32.5c6.91,0,12.5-5.59,12.5-12.5v-105.02l-50,36.96ZM60,129.44L10,92.48v105.02c0,6.91,5.59,12.5,12.5,12.5h32.5c2.76,0,5-2.24,5-5v-75.56Z"/>
</svg>