<?xml version="1.0" encoding="UTF-8"?>
<svg id="Camada_1" xmlns="http://www.w3.org/2000/svg" version="1.1" viewBox="0 0 30 30">
  <!-- Generator: Adobe Illustrator 30.2.1, SVG Export Plug-In . SVG Version: 2.1.1 Build 1)  -->
  <path d="M27.82.06H2.2C1.03.06.07,1.03.07,2.21v25.57c0,1.19.95,2.15,2.13,2.15h25.62c1.17,0,2.13-.97,2.13-2.15V2.21c0-1.19-.96-2.15-2.13-2.15ZM9.11,25.67h-4.43v-14.26h4.44v14.26h0ZM6.89,4.33c1.42,0,2.57,1.15,2.57,2.57s-1.15,2.57-2.57,2.57-2.57-1.15-2.57-2.57,1.15-2.57,2.57-2.57ZM25.71,25.67h-4.43v-6.94c0-1.65-.03-3.78-2.3-3.78s-2.66,1.8-2.66,3.66v7.06h-4.43v-14.26h4.25v1.95h.06c.59-1.12,2.04-2.3,4.2-2.3,4.48,0,5.32,2.95,5.32,6.8v7.82Z"/>
</svg>